<?xml version="1.0" standalone="no"?>
<!DOCTYPE svg PUBLIC "-//W3C//DTD SVG 20010904//EN"
 "http://www.w3.org/TR/2001/REC-SVG-20010904/DTD/svg10.dtd">
<svg version="1.0" xmlns="http://www.w3.org/2000/svg"
 width="270.000000pt" height="270.000000pt" viewBox="0 0 270.000000 270.000000"
 preserveAspectRatio="xMidYMid meet">
<metadata>
Created by potrace 1.11, written by Peter Selinger 2001-2013
</metadata>
<g transform="translate(0.000000,270.000000) scale(0.100000,-0.100000)"
fill="#000000" stroke="none">
<path d="M0 1350 l0 -1350 1350 0 1350 0 0 1350 0 1350 -1350 0 -1350 0 0
-1350z m568 103 l2 -633 355 0 355 0 0 -70 0 -70 -435 0 -435 0 0 705 0 706
78 -3 77 -3 3 -632z m1724 540 l98 -98 0 -62 0 -63 -75 0 -75 0 0 39 c0 35 -6
45 -52 85 l-53 46 -229 0 -230 0 -48 -47 -48 -47 0 -135 0 -135 52 -53 52 -53
271 0 270 0 88 -88 87 -87 0 -215 0 -215 -92 -92 -93 -93 -305 0 -305 0 -93
93 -93 93 3 65 3 64 78 3 77 3 0 -43 c0 -37 6 -48 47 -90 l47 -48 235 0 235 0
53 52 53 52 0 157 0 157 -54 46 -53 46 -264 0 -264 0 -92 92 -93 93 0 195 0
195 92 92 93 93 290 0 290 0 97 -97z"/>
</g>
</svg>
